<svg width="142" height="48" viewBox="0 0 142 48" fill="none" xmlns="http://www.w3.org/2000/svg">
<path d="M1 25.2321L4.02542 1L5.75424 1.82143L5.9509 1.91487L7.48305 2.64286V1L25.2034 7.98214L43.3559 2.64286H45.0847H48.5424L52 25.2321L41.1949 30.9821L50.2712 35.0893L45.0847 38.375L46.8136 47L26.0394 37.1293L5.75424 45.3571L7.48305 38.375L1 35.0893L9.64407 29.3393L1 25.2321Z" fill="#3B5998"/>
<path d="M1 25.2321L4.02542 1L5.75424 1.82143L5.9509 1.91487L7.48305 2.64286V1L25.2034 7.98214L43.3559 2.64286H45.0847H48.5424L52 25.2321L41.1949 30.9821L50.2712 35.0893L45.0847 38.375L46.8136 47L26.0394 37.1293L5.75424 45.3571L7.48305 38.375L1 35.0893L9.64407 29.3393L1 25.2321Z" fill="black" fill-opacity="0.17"/>
<path d="M7.48305 2.64286L4.02542 22.3571L27.3644 32.625M7.48305 2.64286V1L25.2034 7.98214M7.48305 2.64286L5.9509 1.91487L5.75424 1.82143L4.02542 1L1 25.2321L9.64407 29.3393M41.1949 30.9821L50.2712 35.0893L45.0847 38.375L46.8136 47L9.64407 29.3393M41.1949 30.9821L52 25.2321L48.5424 2.64286H45.0847M41.1949 30.9821L5.75424 45.3571L7.48305 38.375L1 35.0893L9.64407 29.3393M45.0847 2.64286L48.5424 20.7143L27.3644 32.625M45.0847 2.64286H43.3559L25.2034 7.98214M27.3644 32.625L25.2034 7.98214" stroke="white"/>
<mask id="path-3-outside-1_246_2483" maskUnits="userSpaceOnUse" x="59" y="4" width="83" height="40" fill="black">
<rect fill="white" x="59" y="4" width="83" height="40"/>
<path d="M68.952 15.872H64.504L63.768 18H61.416L65.432 6.816H68.04L72.056 18H69.688L68.952 15.872ZM68.344 14.08L66.728 9.408L65.112 14.08H68.344ZM76.9491 18.144C76.2238 18.144 75.5731 18.016 74.9971 17.76C74.4211 17.4933 73.9625 17.136 73.6211 16.688C73.2905 16.24 73.1091 15.744 73.0771 15.2H75.3331C75.3758 15.5413 75.5411 15.824 75.8291 16.048C76.1278 16.272 76.4958 16.384 76.9331 16.384C77.3598 16.384 77.6905 16.2987 77.9251 16.128C78.1705 15.9573 78.2931 15.7387 78.2931 15.472C78.2931 15.184 78.1438 14.9707 77.8451 14.832C77.5571 14.6827 77.0931 14.5227 76.4531 14.352C75.7918 14.192 75.2478 14.0267 74.8211 13.856C74.4051 13.6853 74.0425 13.424 73.7331 13.072C73.4345 12.72 73.2851 12.2453 73.2851 11.648C73.2851 11.1573 73.4238 10.7093 73.7011 10.304C73.9891 9.89867 74.3945 9.57867 74.9171 9.344C75.4505 9.10933 76.0745 8.992 76.7891 8.992C77.8451 8.992 78.6878 9.25867 79.3171 9.792C79.9465 10.3147 80.2931 11.024 80.3571 11.92H78.2131C78.1811 11.568 78.0318 11.2907 77.7651 11.088C77.5091 10.8747 77.1625 10.768 76.7251 10.768C76.3198 10.768 76.0051 10.8427 75.7811 10.992C75.5678 11.1413 75.4611 11.3493 75.4611 11.616C75.4611 11.9147 75.6105 12.144 75.9091 12.304C76.2078 12.4533 76.6718 12.608 77.3011 12.768C77.9411 12.928 78.4691 13.0933 78.8851 13.264C79.3011 13.4347 79.6585 13.7013 79.9571 14.064C80.2665 14.416 80.4265 14.8853 80.4371 15.472C80.4371 15.984 80.2931 16.4427 80.0051 16.848C79.7278 17.2533 79.3225 17.5733 78.7891 17.808C78.2665 18.032 77.6531 18.144 76.9491 18.144ZM83.4119 8.08C83.0172 8.08 82.6865 7.95733 82.4199 7.712C82.1639 7.456 82.0359 7.14133 82.0359 6.768C82.0359 6.39467 82.1639 6.08533 82.4199 5.84C82.6865 5.584 83.0172 5.456 83.4119 5.456C83.8065 5.456 84.1319 5.584 84.3879 5.84C84.6545 6.08533 84.7879 6.39467 84.7879 6.768C84.7879 7.14133 84.6545 7.456 84.3879 7.712C84.1319 7.95733 83.8065 8.08 83.4119 8.08ZM84.5159 9.136V18H82.2759V9.136H84.5159ZM90.121 18.144C89.3957 18.144 88.745 18.016 88.169 17.76C87.593 17.4933 87.1343 17.136 86.793 16.688C86.4623 16.24 86.281 15.744 86.249 15.2H88.505C88.5477 15.5413 88.713 15.824 89.001 16.048C89.2997 16.272 89.6677 16.384 90.105 16.384C90.5317 16.384 90.8623 16.2987 91.097 16.128C91.3423 15.9573 91.465 15.7387 91.465 15.472C91.465 15.184 91.3157 14.9707 91.017 14.832C90.729 14.6827 90.265 14.5227 89.625 14.352C88.9637 14.192 88.4197 14.0267 87.993 13.856C87.577 13.6853 87.2143 13.424 86.905 13.072C86.6063 12.72 86.457 12.2453 86.457 11.648C86.457 11.1573 86.5957 10.7093 86.873 10.304C87.161 9.89867 87.5663 9.57867 88.089 9.344C88.6223 9.10933 89.2463 8.992 89.961 8.992C91.017 8.992 91.8597 9.25867 92.489 9.792C93.1183 10.3147 93.465 11.024 93.529 11.92H91.385C91.353 11.568 91.2037 11.2907 90.937 11.088C90.681 10.8747 90.3343 10.768 89.897 10.768C89.4917 10.768 89.177 10.8427 88.953 10.992C88.7397 11.1413 88.633 11.3493 88.633 11.616C88.633 11.9147 88.7823 12.144 89.081 12.304C89.3797 12.4533 89.8437 12.608 90.473 12.768C91.113 12.928 91.641 13.0933 92.057 13.264C92.473 13.4347 92.8303 13.7013 93.129 14.064C93.4383 14.416 93.5983 14.8853 93.609 15.472C93.609 15.984 93.465 16.4427 93.177 16.848C92.8997 17.2533 92.4943 17.5733 91.961 17.808C91.4383 18.032 90.825 18.144 90.121 18.144ZM98.0558 10.976V15.264C98.0558 15.5627 98.1251 15.7813 98.2638 15.92C98.4131 16.048 98.6584 16.112 98.9998 16.112H100.04V18H98.6318C96.7438 18 95.7998 17.0827 95.7998 15.248V10.976H94.7438V9.136H95.7998V6.944H98.0558V9.136H100.04V10.976H98.0558ZM109.891 13.376C109.891 13.696 109.87 13.984 109.827 14.24H103.347C103.4 14.88 103.624 15.3813 104.019 15.744C104.414 16.1067 104.899 16.288 105.475 16.288C106.307 16.288 106.899 15.9307 107.251 15.216H109.667C109.411 16.0693 108.92 16.7733 108.195 17.328C107.47 17.872 106.579 18.144 105.523 18.144C104.67 18.144 103.902 17.9573 103.219 17.584C102.547 17.2 102.019 16.6613 101.635 15.968C101.262 15.2747 101.075 14.4747 101.075 13.568C101.075 12.6507 101.262 11.8453 101.635 11.152C102.008 10.4587 102.531 9.92533 103.203 9.552C103.875 9.17867 104.648 8.992 105.523 8.992C106.366 8.992 107.118 9.17333 107.779 9.536C108.451 9.89867 108.968 10.416 109.331 11.088C109.704 11.7493 109.891 12.512 109.891 13.376ZM107.571 12.736C107.56 12.16 107.352 11.7013 106.947 11.36C106.542 11.008 106.046 10.832 105.459 10.832C104.904 10.832 104.435 11.0027 104.051 11.344C103.678 11.6747 103.448 12.1387 103.363 12.736H107.571ZM116.438 9.008C117.494 9.008 118.347 9.344 118.998 10.016C119.649 10.6773 119.974 11.6053 119.974 12.8V18H117.734V13.104C117.734 12.4 117.558 11.8613 117.206 11.488C116.854 11.104 116.374 10.912 115.766 10.912C115.147 10.912 114.657 11.104 114.294 11.488C113.942 11.8613 113.766 12.4 113.766 13.104V18H111.526V9.136H113.766V10.24C114.065 9.856 114.443 9.55733 114.902 9.344C115.371 9.12 115.883 9.008 116.438 9.008ZM74.28 30.832V42H72.04V34.736L69.048 42H67.352L64.344 34.736V42H62.104V30.832H64.648L68.2 39.136L71.752 30.832H74.28ZM84.8626 33.136V42H82.6066V40.88C82.3186 41.264 81.94 41.568 81.4706 41.792C81.012 42.0053 80.5106 42.112 79.9666 42.112C79.2733 42.112 78.66 41.968 78.1266 41.68C77.5933 41.3813 77.172 40.9493 76.8626 40.384C76.564 39.808 76.4146 39.1253 76.4146 38.336V33.136H78.6546V38.016C78.6546 38.72 78.8306 39.264 79.1826 39.648C79.5346 40.0213 80.0146 40.208 80.6226 40.208C81.2413 40.208 81.7266 40.0213 82.0786 39.648C82.4306 39.264 82.6066 38.72 82.6066 38.016V33.136H84.8626ZM92.0648 33.008C92.7368 33.008 93.3341 33.1573 93.8568 33.456C94.3794 33.744 94.7848 34.176 95.0728 34.752C95.3714 35.3173 95.5208 36 95.5208 36.8V42H93.2808V37.104C93.2808 36.4 93.1048 35.8613 92.7528 35.488C92.4008 35.104 91.9208 34.912 91.3128 34.912C90.6941 34.912 90.2034 35.104 89.8408 35.488C89.4888 35.8613 89.3128 36.4 89.3128 37.104V42H87.0728V30.16H89.3128V34.24C89.6008 33.856 89.9848 33.5573 90.4648 33.344C90.9448 33.12 91.4781 33.008 92.0648 33.008ZM97.0749 37.536C97.0749 36.64 97.2509 35.8453 97.6029 35.152C97.9655 34.4587 98.4509 33.9253 99.0589 33.552C99.6775 33.1787 100.366 32.992 101.123 32.992C101.784 32.992 102.36 33.1253 102.851 33.392C103.352 33.6587 103.752 33.9947 104.051 34.4V33.136H106.307V42H104.051V40.704C103.763 41.12 103.363 41.4667 102.851 41.744C102.35 42.0107 101.768 42.144 101.107 42.144C100.36 42.144 99.6775 41.952 99.0589 41.568C98.4509 41.184 97.9655 40.6453 97.6029 39.952C97.2509 39.248 97.0749 38.4427 97.0749 37.536ZM104.051 37.568C104.051 37.024 103.944 36.56 103.731 36.176C103.518 35.7813 103.23 35.4827 102.867 35.28C102.504 35.0667 102.115 34.96 101.699 34.96C101.283 34.96 100.899 35.0613 100.547 35.264C100.195 35.4667 99.9069 35.7653 99.6829 36.16C99.4695 36.544 99.3629 37.0027 99.3629 37.536C99.3629 38.0693 99.4695 38.5387 99.6829 38.944C99.9069 39.3387 100.195 39.6427 100.547 39.856C100.91 40.0693 101.294 40.176 101.699 40.176C102.115 40.176 102.504 40.0747 102.867 39.872C103.23 39.6587 103.518 39.36 103.731 38.976C103.944 38.5813 104.051 38.112 104.051 37.568ZM112.559 34.976H111.007V42H108.735V34.976H107.727V33.136H108.735V32.688C108.735 31.6 109.044 30.8 109.663 30.288C110.281 29.776 111.215 29.536 112.463 29.568V31.456C111.919 31.4453 111.54 31.536 111.327 31.728C111.113 31.92 111.007 32.2667 111.007 32.768V33.136H112.559V34.976ZM118.074 34.976H116.522V42H114.25V34.976H113.242V33.136H114.25V32.688C114.25 31.6 114.56 30.8 115.178 30.288C115.797 29.776 116.73 29.536 117.978 29.568V31.456C117.434 31.4453 117.056 31.536 116.842 31.728C116.629 31.92 116.522 32.2667 116.522 32.768V33.136H118.074V34.976ZM120.662 32.08C120.267 32.08 119.937 31.9573 119.67 31.712C119.414 31.456 119.286 31.1413 119.286 30.768C119.286 30.3947 119.414 30.0853 119.67 29.84C119.937 29.584 120.267 29.456 120.662 29.456C121.057 29.456 121.382 29.584 121.638 29.84C121.905 30.0853 122.038 30.3947 122.038 30.768C122.038 31.1413 121.905 31.456 121.638 31.712C121.382 31.9573 121.057 32.08 120.662 32.08ZM121.766 33.136V42H119.526V33.136H121.766ZM123.403 37.536C123.403 36.64 123.579 35.8453 123.931 35.152C124.294 34.4587 124.784 33.9253 125.403 33.552C126.022 33.1787 126.71 32.992 127.467 32.992C128.043 32.992 128.592 33.12 129.115 33.376C129.638 33.6213 130.054 33.952 130.363 34.368V30.16H132.635V42H130.363V40.688C130.086 41.1253 129.696 41.4773 129.195 41.744C128.694 42.0107 128.112 42.144 127.451 42.144C126.704 42.144 126.022 41.952 125.403 41.568C124.784 41.184 124.294 40.6453 123.931 39.952C123.579 39.248 123.403 38.4427 123.403 37.536ZM130.379 37.568C130.379 37.024 130.272 36.56 130.059 36.176C129.846 35.7813 129.558 35.4827 129.195 35.28C128.832 35.0667 128.443 34.96 128.027 34.96C127.611 34.96 127.227 35.0613 126.875 35.264C126.523 35.4667 126.235 35.7653 126.011 36.16C125.798 36.544 125.691 37.0027 125.691 37.536C125.691 38.0693 125.798 38.5387 126.011 38.944C126.235 39.3387 126.523 39.6427 126.875 39.856C127.238 40.0693 127.622 40.176 128.027 40.176C128.443 40.176 128.832 40.0747 129.195 39.872C129.558 39.6587 129.846 39.36 130.059 38.976C130.272 38.5813 130.379 38.112 130.379 37.568ZM136.871 40.16H140.823V42H134.327V40.192L138.199 34.976H134.343V33.136H140.775V34.944L136.871 40.16Z"/>
</mask>
<path d="M68.952 15.872H64.504L63.768 18H61.416L65.432 6.816H68.04L72.056 18H69.688L68.952 15.872ZM68.344 14.08L66.728 9.408L65.112 14.08H68.344ZM76.9491 18.144C76.2238 18.144 75.5731 18.016 74.9971 17.76C74.4211 17.4933 73.9625 17.136 73.6211 16.688C73.2905 16.24 73.1091 15.744 73.0771 15.2H75.3331C75.3758 15.5413 75.5411 15.824 75.8291 16.048C76.1278 16.272 76.4958 16.384 76.9331 16.384C77.3598 16.384 77.6905 16.2987 77.9251 16.128C78.1705 15.9573 78.2931 15.7387 78.2931 15.472C78.2931 15.184 78.1438 14.9707 77.8451 14.832C77.5571 14.6827 77.0931 14.5227 76.4531 14.352C75.7918 14.192 75.2478 14.0267 74.8211 13.856C74.4051 13.6853 74.0425 13.424 73.7331 13.072C73.4345 12.72 73.2851 12.2453 73.2851 11.648C73.2851 11.1573 73.4238 10.7093 73.7011 10.304C73.9891 9.89867 74.3945 9.57867 74.9171 9.344C75.4505 9.10933 76.0745 8.992 76.7891 8.992C77.8451 8.992 78.6878 9.25867 79.3171 9.792C79.9465 10.3147 80.2931 11.024 80.3571 11.92H78.2131C78.1811 11.568 78.0318 11.2907 77.7651 11.088C77.5091 10.8747 77.1625 10.768 76.7251 10.768C76.3198 10.768 76.0051 10.8427 75.7811 10.992C75.5678 11.1413 75.4611 11.3493 75.4611 11.616C75.4611 11.9147 75.6105 12.144 75.9091 12.304C76.2078 12.4533 76.6718 12.608 77.3011 12.768C77.9411 12.928 78.4691 13.0933 78.8851 13.264C79.3011 13.4347 79.6585 13.7013 79.9571 14.064C80.2665 14.416 80.4265 14.8853 80.4371 15.472C80.4371 15.984 80.2931 16.4427 80.0051 16.848C79.7278 17.2533 79.3225 17.5733 78.7891 17.808C78.2665 18.032 77.6531 18.144 76.9491 18.144ZM83.4119 8.08C83.0172 8.08 82.6865 7.95733 82.4199 7.712C82.1639 7.456 82.0359 7.14133 82.0359 6.768C82.0359 6.39467 82.1639 6.08533 82.4199 5.84C82.6865 5.584 83.0172 5.456 83.4119 5.456C83.8065 5.456 84.1319 5.584 84.3879 5.84C84.6545 6.08533 84.7879 6.39467 84.7879 6.768C84.7879 7.14133 84.6545 7.456 84.3879 7.712C84.1319 7.95733 83.8065 8.08 83.4119 8.08ZM84.5159 9.136V18H82.2759V9.136H84.5159ZM90.121 18.144C89.3957 18.144 88.745 18.016 88.169 17.76C87.593 17.4933 87.1343 17.136 86.793 16.688C86.4623 16.24 86.281 15.744 86.249 15.2H88.505C88.5477 15.5413 88.713 15.824 89.001 16.048C89.2997 16.272 89.6677 16.384 90.105 16.384C90.5317 16.384 90.8623 16.2987 91.097 16.128C91.3423 15.9573 91.465 15.7387 91.465 15.472C91.465 15.184 91.3157 14.9707 91.017 14.832C90.729 14.6827 90.265 14.5227 89.625 14.352C88.9637 14.192 88.4197 14.0267 87.993 13.856C87.577 13.6853 87.2143 13.424 86.905 13.072C86.6063 12.72 86.457 12.2453 86.457 11.648C86.457 11.1573 86.5957 10.7093 86.873 10.304C87.161 9.89867 87.5663 9.57867 88.089 9.344C88.6223 9.10933 89.2463 8.992 89.961 8.992C91.017 8.992 91.8597 9.25867 92.489 9.792C93.1183 10.3147 93.465 11.024 93.529 11.92H91.385C91.353 11.568 91.2037 11.2907 90.937 11.088C90.681 10.8747 90.3343 10.768 89.897 10.768C89.4917 10.768 89.177 10.8427 88.953 10.992C88.7397 11.1413 88.633 11.3493 88.633 11.616C88.633 11.9147 88.7823 12.144 89.081 12.304C89.3797 12.4533 89.8437 12.608 90.473 12.768C91.113 12.928 91.641 13.0933 92.057 13.264C92.473 13.4347 92.8303 13.7013 93.129 14.064C93.4383 14.416 93.5983 14.8853 93.609 15.472C93.609 15.984 93.465 16.4427 93.177 16.848C92.8997 17.2533 92.4943 17.5733 91.961 17.808C91.4383 18.032 90.825 18.144 90.121 18.144ZM98.0558 10.976V15.264C98.0558 15.5627 98.1251 15.7813 98.2638 15.92C98.4131 16.048 98.6584 16.112 98.9998 16.112H100.04V18H98.6318C96.7438 18 95.7998 17.0827 95.7998 15.248V10.976H94.7438V9.136H95.7998V6.944H98.0558V9.136H100.04V10.976H98.0558ZM109.891 13.376C109.891 13.696 109.87 13.984 109.827 14.24H103.347C103.4 14.88 103.624 15.3813 104.019 15.744C104.414 16.1067 104.899 16.288 105.475 16.288C106.307 16.288 106.899 15.9307 107.251 15.216H109.667C109.411 16.0693 108.92 16.7733 108.195 17.328C107.47 17.872 106.579 18.144 105.523 18.144C104.67 18.144 103.902 17.9573 103.219 17.584C102.547 17.2 102.019 16.6613 101.635 15.968C101.262 15.2747 101.075 14.4747 101.075 13.568C101.075 12.6507 101.262 11.8453 101.635 11.152C102.008 10.4587 102.531 9.92533 103.203 9.552C103.875 9.17867 104.648 8.992 105.523 8.992C106.366 8.992 107.118 9.17333 107.779 9.536C108.451 9.89867 108.968 10.416 109.331 11.088C109.704 11.7493 109.891 12.512 109.891 13.376ZM107.571 12.736C107.56 12.16 107.352 11.7013 106.947 11.36C106.542 11.008 106.046 10.832 105.459 10.832C104.904 10.832 104.435 11.0027 104.051 11.344C103.678 11.6747 103.448 12.1387 103.363 12.736H107.571ZM116.438 9.008C117.494 9.008 118.347 9.344 118.998 10.016C119.649 10.6773 119.974 11.6053 119.974 12.8V18H117.734V13.104C117.734 12.4 117.558 11.8613 117.206 11.488C116.854 11.104 116.374 10.912 115.766 10.912C115.147 10.912 114.657 11.104 114.294 11.488C113.942 11.8613 113.766 12.4 113.766 13.104V18H111.526V9.136H113.766V10.24C114.065 9.856 114.443 9.55733 114.902 9.344C115.371 9.12 115.883 9.008 116.438 9.008ZM74.28 30.832V42H72.04V34.736L69.048 42H67.352L64.344 34.736V42H62.104V30.832H64.648L68.2 39.136L71.752 30.832H74.28ZM84.8626 33.136V42H82.6066V40.88C82.3186 41.264 81.94 41.568 81.4706 41.792C81.012 42.0053 80.5106 42.112 79.9666 42.112C79.2733 42.112 78.66 41.968 78.1266 41.68C77.5933 41.3813 77.172 40.9493 76.8626 40.384C76.564 39.808 76.4146 39.1253 76.4146 38.336V33.136H78.6546V38.016C78.6546 38.72 78.8306 39.264 79.1826 39.648C79.5346 40.0213 80.0146 40.208 80.6226 40.208C81.2413 40.208 81.7266 40.0213 82.0786 39.648C82.4306 39.264 82.6066 38.72 82.6066 38.016V33.136H84.8626ZM92.0648 33.008C92.7368 33.008 93.3341 33.1573 93.8568 33.456C94.3794 33.744 94.7848 34.176 95.0728 34.752C95.3714 35.3173 95.5208 36 95.5208 36.8V42H93.2808V37.104C93.2808 36.4 93.1048 35.8613 92.7528 35.488C92.4008 35.104 91.9208 34.912 91.3128 34.912C90.6941 34.912 90.2034 35.104 89.8408 35.488C89.4888 35.8613 89.3128 36.4 89.3128 37.104V42H87.0728V30.16H89.3128V34.24C89.6008 33.856 89.9848 33.5573 90.4648 33.344C90.9448 33.12 91.4781 33.008 92.0648 33.008ZM97.0749 37.536C97.0749 36.64 97.2509 35.8453 97.6029 35.152C97.9655 34.4587 98.4509 33.9253 99.0589 33.552C99.6775 33.1787 100.366 32.992 101.123 32.992C101.784 32.992 102.36 33.1253 102.851 33.392C103.352 33.6587 103.752 33.9947 104.051 34.4V33.136H106.307V42H104.051V40.704C103.763 41.12 103.363 41.4667 102.851 41.744C102.35 42.0107 101.768 42.144 101.107 42.144C100.36 42.144 99.6775 41.952 99.0589 41.568C98.4509 41.184 97.9655 40.6453 97.6029 39.952C97.2509 39.248 97.0749 38.4427 97.0749 37.536ZM104.051 37.568C104.051 37.024 103.944 36.56 103.731 36.176C103.518 35.7813 103.23 35.4827 102.867 35.28C102.504 35.0667 102.115 34.96 101.699 34.96C101.283 34.96 100.899 35.0613 100.547 35.264C100.195 35.4667 99.9069 35.7653 99.6829 36.16C99.4695 36.544 99.3629 37.0027 99.3629 37.536C99.3629 38.0693 99.4695 38.5387 99.6829 38.944C99.9069 39.3387 100.195 39.6427 100.547 39.856C100.91 40.0693 101.294 40.176 101.699 40.176C102.115 40.176 102.504 40.0747 102.867 39.872C103.23 39.6587 103.518 39.36 103.731 38.976C103.944 38.5813 104.051 38.112 104.051 37.568ZM112.559 34.976H111.007V42H108.735V34.976H107.727V33.136H108.735V32.688C108.735 31.6 109.044 30.8 109.663 30.288C110.281 29.776 111.215 29.536 112.463 29.568V31.456C111.919 31.4453 111.54 31.536 111.327 31.728C111.113 31.92 111.007 32.2667 111.007 32.768V33.136H112.559V34.976ZM118.074 34.976H116.522V42H114.25V34.976H113.242V33.136H114.25V32.688C114.25 31.6 114.56 30.8 115.178 30.288C115.797 29.776 116.73 29.536 117.978 29.568V31.456C117.434 31.4453 117.056 31.536 116.842 31.728C116.629 31.92 116.522 32.2667 116.522 32.768V33.136H118.074V34.976ZM120.662 32.08C120.267 32.08 119.937 31.9573 119.67 31.712C119.414 31.456 119.286 31.1413 119.286 30.768C119.286 30.3947 119.414 30.0853 119.67 29.84C119.937 29.584 120.267 29.456 120.662 29.456C121.057 29.456 121.382 29.584 121.638 29.84C121.905 30.0853 122.038 30.3947 122.038 30.768C122.038 31.1413 121.905 31.456 121.638 31.712C121.382 31.9573 121.057 32.08 120.662 32.08ZM121.766 33.136V42H119.526V33.136H121.766ZM123.403 37.536C123.403 36.64 123.579 35.8453 123.931 35.152C124.294 34.4587 124.784 33.9253 125.403 33.552C126.022 33.1787 126.71 32.992 127.467 32.992C128.043 32.992 128.592 33.12 129.115 33.376C129.638 33.6213 130.054 33.952 130.363 34.368V30.16H132.635V42H130.363V40.688C130.086 41.1253 129.696 41.4773 129.195 41.744C128.694 42.0107 128.112 42.144 127.451 42.144C126.704 42.144 126.022 41.952 125.403 41.568C124.784 41.184 124.294 40.6453 123.931 39.952C123.579 39.248 123.403 38.4427 123.403 37.536ZM130.379 37.568C130.379 37.024 130.272 36.56 130.059 36.176C129.846 35.7813 129.558 35.4827 129.195 35.28C128.832 35.0667 128.443 34.96 128.027 34.96C127.611 34.96 127.227 35.0613 126.875 35.264C126.523 35.4667 126.235 35.7653 126.011 36.16C125.798 36.544 125.691 37.0027 125.691 37.536C125.691 38.0693 125.798 38.5387 126.011 38.944C126.235 39.3387 126.523 39.6427 126.875 39.856C127.238 40.0693 127.622 40.176 128.027 40.176C128.443 40.176 128.832 40.0747 129.195 39.872C129.558 39.6587 129.846 39.36 130.059 38.976C130.272 38.5813 130.379 38.112 130.379 37.568ZM136.871 40.16H140.823V42H134.327V40.192L138.199 34.976H134.343V33.136H140.775V34.944L136.871 40.16Z" fill="#3B5998"/>
<path d="M68.952 15.872L69.8971 15.5451L69.6643 14.872H68.952V15.872ZM64.504 15.872V14.872H63.7917L63.5589 15.5451L64.504 15.872ZM63.768 18V19H64.4803L64.7131 18.3269L63.768 18ZM61.416 18L60.4748 17.662L59.9944 19H61.416V18ZM65.432 6.816V5.816H64.7286L64.4908 6.47804L65.432 6.816ZM68.04 6.816L68.9812 6.47804L68.7434 5.816H68.04V6.816ZM72.056 18V19H73.4776L72.9972 17.662L72.056 18ZM69.688 18L68.7429 18.3269L68.9757 19H69.688V18ZM68.344 14.08V15.08H69.748L69.2891 13.7531L68.344 14.08ZM66.728 9.408L67.6731 9.08111L66.728 6.34885L65.7829 9.08111L66.728 9.408ZM65.112 14.08L64.1669 13.7531L63.708 15.08H65.112V14.08ZM68.952 14.872H64.504V16.872H68.952V14.872ZM63.5589 15.5451L62.8229 17.6731L64.7131 18.3269L65.4491 16.1989L63.5589 15.5451ZM63.768 17H61.416V19H63.768V17ZM62.3572 18.338L66.3732 7.15396L64.4908 6.47804L60.4748 17.662L62.3572 18.338ZM65.432 7.816H68.04V5.816H65.432V7.816ZM67.0988 7.15396L71.1148 18.338L72.9972 17.662L68.9812 6.47804L67.0988 7.15396ZM72.056 17H69.688V19H72.056V17ZM70.6331 17.6731L69.8971 15.5451L68.0069 16.1989L68.7429 18.3269L70.6331 17.6731ZM69.2891 13.7531L67.6731 9.08111L65.7829 9.73489L67.3989 14.4069L69.2891 13.7531ZM65.7829 9.08111L64.1669 13.7531L66.0571 14.4069L67.6731 9.73489L65.7829 9.08111ZM65.112 15.08H68.344V13.08H65.112V15.08ZM74.9971 17.76L74.577 18.6675L74.584 18.6707L74.591 18.6738L74.9971 17.76ZM73.6211 16.688L72.8166 17.2819L72.8211 17.288L72.8257 17.294L73.6211 16.688ZM73.0771 15.2V14.2H72.0166L72.0789 15.2587L73.0771 15.2ZM75.3331 15.2L76.3254 15.076L76.2159 14.2H75.3331V15.2ZM75.8291 16.048L75.2152 16.8374L75.2221 16.8427L75.2291 16.848L75.8291 16.048ZM77.9251 16.128L77.3541 15.3071L77.3454 15.3131L77.337 15.3193L77.9251 16.128ZM77.8451 14.832L77.3848 15.7198L77.4042 15.7298L77.424 15.739L77.8451 14.832ZM76.4531 14.352L76.7108 13.3858L76.6996 13.3828L76.6883 13.38L76.4531 14.352ZM74.8211 13.856L74.4416 14.7812L74.4497 14.7845L74.8211 13.856ZM73.7331 13.072L72.9706 13.719L72.9762 13.7256L72.982 13.7321L73.7331 13.072ZM73.7011 10.304L72.8859 9.72479L72.8808 9.73201L72.8758 9.73932L73.7011 10.304ZM74.9171 9.344L74.5144 8.42866L74.5075 8.43173L74.9171 9.344ZM79.3171 9.792L78.6706 10.5549L78.6782 10.5613L79.3171 9.792ZM80.3571 11.92V12.92H81.4311L81.3546 11.8488L80.3571 11.92ZM78.2131 11.92L77.2172 12.0105L77.2999 12.92H78.2131V11.92ZM77.7651 11.088L77.1249 11.8562L77.1422 11.8706L77.16 11.8842L77.7651 11.088ZM75.7811 10.992L75.2264 10.1599L75.217 10.1663L75.2077 10.1728L75.7811 10.992ZM75.9091 12.304L75.4369 13.1855L75.4493 13.1921L75.4619 13.1984L75.9091 12.304ZM77.3011 12.768L77.0547 13.7372L77.0586 13.7381L77.3011 12.768ZM79.9571 14.064L79.1852 14.6997L79.1954 14.7121L79.206 14.7241L79.9571 14.064ZM80.4371 15.472H81.4371V15.4629L81.437 15.4538L80.4371 15.472ZM80.0051 16.848L79.1899 16.2688L79.1848 16.276L79.1798 16.2833L80.0051 16.848ZM78.7891 17.808L79.1831 18.7272L79.1919 18.7233L78.7891 17.808ZM76.9491 17.144C76.3427 17.144 75.8335 17.0374 75.4033 16.8462L74.591 18.6738C75.3127 18.9946 76.1049 19.144 76.9491 19.144V17.144ZM75.4172 16.8525C74.97 16.6455 74.6472 16.3847 74.4166 16.082L72.8257 17.294C73.2777 17.8873 73.8722 18.3412 74.577 18.6675L75.4172 16.8525ZM74.4257 16.0941C74.2074 15.7984 74.0958 15.4875 74.0754 15.1413L72.0789 15.2587C72.1225 16.0005 72.3735 16.6816 72.8166 17.2819L74.4257 16.0941ZM73.0771 16.2H75.3331V14.2H73.0771V16.2ZM74.3408 15.324C74.4186 15.9457 74.7319 16.4615 75.2152 16.8374L76.4431 15.2586C76.3503 15.1865 76.333 15.1369 76.3254 15.076L74.3408 15.324ZM75.2291 16.848C75.7293 17.2231 76.3179 17.384 76.9331 17.384V15.384C76.6737 15.384 76.5263 15.3209 76.4291 15.248L75.2291 16.848ZM76.9331 17.384C77.4762 17.384 78.0443 17.2778 78.5133 16.9367L77.337 15.3193C77.3366 15.3195 77.2433 15.384 76.9331 15.384V17.384ZM78.4962 16.9489C78.9725 16.6176 79.2931 16.1095 79.2931 15.472H77.2931C77.2931 15.4614 77.2944 15.4424 77.3006 15.418C77.3069 15.3931 77.3167 15.3687 77.329 15.3467C77.3545 15.3012 77.3762 15.2917 77.3541 15.3071L78.4962 16.9489ZM79.2931 15.472C79.2931 15.1456 79.2051 14.815 79.0004 14.5225C78.8013 14.2381 78.5337 14.0492 78.2662 13.925L77.424 15.739C77.4552 15.7535 77.4116 15.7405 77.3619 15.6695C77.3374 15.6345 77.3186 15.5952 77.3067 15.5555C77.2952 15.5167 77.2931 15.487 77.2931 15.472H79.2931ZM78.3054 13.9442C77.916 13.7423 77.3642 13.56 76.7108 13.3858L76.1955 15.3182C76.822 15.4853 77.1982 15.623 77.3848 15.7198L78.3054 13.9442ZM76.6883 13.38C76.0535 13.2265 75.5593 13.0742 75.1925 12.9275L74.4497 14.7845C74.9363 14.9791 75.53 15.1575 76.218 15.324L76.6883 13.38ZM75.2007 12.9308C74.9334 12.8212 74.6963 12.6531 74.4843 12.4119L72.982 13.7321C73.3887 14.1949 73.8769 14.5495 74.4416 14.7812L75.2007 12.9308ZM74.4956 12.425C74.3907 12.3014 74.2851 12.0794 74.2851 11.648H72.2851C72.2851 12.4113 72.4782 13.1386 72.9706 13.719L74.4956 12.425ZM74.2851 11.648C74.2851 11.3591 74.3628 11.1079 74.5264 10.8687L72.8758 9.73932C72.4848 10.3108 72.2851 10.9556 72.2851 11.648H74.2851ZM74.5163 10.8832C74.6863 10.6439 74.9414 10.4293 75.3267 10.2563L74.5075 8.43173C73.8475 8.72806 73.2919 9.15341 72.8859 9.72479L74.5163 10.8832ZM75.3199 10.2593C75.701 10.0916 76.1825 9.992 76.7891 9.992V7.992C75.9664 7.992 75.2 8.12703 74.5144 8.42869L75.3199 10.2593ZM76.7891 9.992C77.6762 9.992 78.2677 10.2134 78.6706 10.5549L79.9636 9.0291C79.1079 8.3039 78.0141 7.992 76.7891 7.992V9.992ZM78.6782 10.5613C79.0762 10.8918 79.313 11.3376 79.3597 11.9912L81.3546 11.8488C81.2733 10.7104 80.8167 9.73751 79.956 9.02271L78.6782 10.5613ZM80.3571 10.92H78.2131V12.92H80.3571V10.92ZM79.209 11.8295C79.1532 11.2152 78.874 10.6747 78.3702 10.2918L77.16 11.8842C77.187 11.9046 77.194 11.9171 77.1967 11.9221C77.2 11.9283 77.212 11.9525 77.2172 12.0105L79.209 11.8295ZM78.4053 10.3198C77.92 9.91533 77.3224 9.768 76.7251 9.768V11.768C77.0025 11.768 77.0983 11.834 77.1249 11.8562L78.4053 10.3198ZM76.7251 9.768C76.2159 9.768 75.6783 9.85873 75.2264 10.1599L76.3358 11.824C76.332 11.8266 76.4237 11.768 76.7251 11.768V9.768ZM75.2077 10.1728C74.7194 10.5145 74.4611 11.0324 74.4611 11.616H76.4611C76.4611 11.616 76.4611 11.6188 76.4606 11.624C76.46 11.6292 76.4589 11.6368 76.4568 11.6463C76.4524 11.6659 76.4443 11.6902 76.4309 11.7163C76.4018 11.7732 76.3659 11.8033 76.3546 11.8112L75.2077 10.1728ZM74.4611 11.616C74.4611 11.9406 74.5451 12.2659 74.7351 12.5577C74.9209 12.843 75.1742 13.0447 75.4369 13.1855L76.3813 11.4225C76.3454 11.4033 76.3747 11.4103 76.4111 11.4663C76.4289 11.4936 76.4427 11.5242 76.4514 11.5548C76.4599 11.5849 76.4611 11.6067 76.4611 11.616H74.4611ZM75.4619 13.1984C75.8594 13.3972 76.4081 13.5728 77.0547 13.7372L77.5475 11.7988C76.9355 11.6432 76.5561 11.5095 76.3563 11.4096L75.4619 13.1984ZM77.0586 13.7381C77.6713 13.8913 78.1494 14.0431 78.5056 14.1892L79.2647 12.3388C78.7888 12.1436 78.2109 11.9647 77.5437 11.7979L77.0586 13.7381ZM78.5056 14.1892C78.762 14.2944 78.9866 14.4585 79.1852 14.6997L80.7291 13.4283C80.3304 12.9442 79.8403 12.575 79.2647 12.3388L78.5056 14.1892ZM79.206 14.7241C79.3227 14.857 79.4298 15.0787 79.4373 15.4902L81.437 15.4538C81.4231 14.692 81.2102 13.975 80.7083 13.4039L79.206 14.7241ZM79.4371 15.472C79.4371 15.783 79.354 16.038 79.1899 16.2688L80.8203 17.4272C81.2323 16.8474 81.4371 16.185 81.4371 15.472H79.4371ZM79.1798 16.2833C79.0261 16.508 78.7811 16.719 78.3864 16.8927L79.1919 18.7233C79.8638 18.4277 80.4295 17.9987 80.8304 17.4127L79.1798 16.2833ZM78.3952 16.8889C78.0229 17.0484 77.549 17.144 76.9491 17.144V19.144C77.7573 19.144 78.51 19.0156 79.183 18.7271L78.3952 16.8889ZM82.4199 7.712L81.7128 8.41911L81.7275 8.43383L81.7428 8.44793L82.4199 7.712ZM82.4199 5.84L83.1118 6.56199L83.1124 6.56139L82.4199 5.84ZM84.3879 5.84L83.6808 6.54711L83.6955 6.56183L83.7108 6.57593L84.3879 5.84ZM84.3879 7.712L85.0798 8.43399L85.0804 8.43339L84.3879 7.712ZM84.5159 9.136H85.5159V8.136H84.5159V9.136ZM84.5159 18V19H85.5159V18H84.5159ZM82.2759 18H81.2759V19H82.2759V18ZM82.2759 9.136V8.136H81.2759V9.136H82.2759ZM83.4119 7.08C83.2437 7.08 83.1619 7.0358 83.0969 6.97607L81.7428 8.44793C82.2112 8.87887 82.7907 9.08 83.4119 9.08V7.08ZM83.127 7.00489C83.065 6.94287 83.0359 6.88537 83.0359 6.768H81.0359C81.0359 7.3973 81.2628 7.96913 81.7128 8.41911L83.127 7.00489ZM83.0359 6.768C83.0359 6.65112 83.064 6.60782 83.1118 6.56199L81.728 5.11801C81.2638 5.56284 81.0359 6.13822 81.0359 6.768H83.0359ZM83.1124 6.56139C83.1794 6.49705 83.2561 6.456 83.4119 6.456V4.456C82.7783 4.456 82.1937 4.67095 81.7273 5.11861L83.1124 6.56139ZM83.4119 6.456C83.5677 6.456 83.6301 6.49647 83.6808 6.54711L85.095 5.13289C84.6336 4.67153 84.0454 4.456 83.4119 4.456V6.456ZM83.7108 6.57593C83.7647 6.6255 83.7879 6.66474 83.7879 6.768H85.7879C85.7879 6.1246 85.5444 5.54517 85.0649 5.10407L83.7108 6.57593ZM83.7879 6.768C83.7879 6.8721 83.7634 6.9253 83.6953 6.99061L85.0804 8.43339C85.5457 7.9867 85.7879 7.41056 85.7879 6.768H83.7879ZM83.696 6.99001C83.6478 7.03614 83.5804 7.08 83.4119 7.08V9.08C84.0327 9.08 84.6159 8.87853 85.0798 8.43399L83.696 6.99001ZM83.5159 9.136V18H85.5159V9.136H83.5159ZM84.5159 17H82.2759V19H84.5159V17ZM83.2759 18V9.136H81.2759V18H83.2759ZM82.2759 10.136H84.5159V8.136H82.2759V10.136ZM88.169 17.76L87.7489 18.6675L87.7558 18.6707L87.7629 18.6738L88.169 17.76ZM86.793 16.688L85.9884 17.2819L85.993 17.288L85.9976 17.294L86.793 16.688ZM86.249 15.2V14.2H85.1884L85.2507 15.2587L86.249 15.2ZM88.505 15.2L89.4973 15.076L89.3878 14.2H88.505V15.2ZM89.001 16.048L88.3871 16.8374L88.394 16.8427L88.401 16.848L89.001 16.048ZM91.097 16.128L90.5259 15.3071L90.5173 15.3131L90.5088 15.3193L91.097 16.128ZM91.017 14.832L90.5567 15.7198L90.5761 15.7298L90.5959 15.739L91.017 14.832ZM89.625 14.352L89.8827 13.3858L89.8714 13.3828L89.8602 13.38L89.625 14.352ZM87.993 13.856L87.6134 14.7812L87.6216 14.7845L87.993 13.856ZM86.905 13.072L86.1425 13.719L86.1481 13.7256L86.1538 13.7321L86.905 13.072ZM86.873 10.304L86.0578 9.72479L86.0527 9.73201L86.0477 9.73932L86.873 10.304ZM88.089 9.344L87.6863 8.42866L87.6794 8.43173L88.089 9.344ZM92.489 9.792L91.8424 10.5549L91.8501 10.5613L92.489 9.792ZM93.529 11.92V12.92H94.603L94.5265 11.8488L93.529 11.92ZM91.385 11.92L90.3891 12.0105L90.4718 12.92H91.385V11.92ZM90.937 11.088L90.2968 11.8562L90.3141 11.8706L90.3319 11.8842L90.937 11.088ZM88.953 10.992L88.3983 10.1599L88.3888 10.1663L88.3795 10.1728L88.953 10.992ZM89.081 12.304L88.6088 13.1855L88.6212 13.1921L88.6338 13.1984L89.081 12.304ZM90.473 12.768L90.2266 13.7372L90.2305 13.7381L90.473 12.768ZM93.129 14.064L92.3571 14.6997L92.3673 14.7121L92.3778 14.7241L93.129 14.064ZM93.609 15.472H94.609V15.4629L94.6088 15.4538L93.609 15.472ZM93.177 16.848L92.3618 16.2688L92.3567 16.276L92.3517 16.2833L93.177 16.848ZM91.961 17.808L92.3549 18.7272L92.3637 18.7233L91.961 17.808ZM90.121 17.144C89.5146 17.144 89.0054 17.0374 88.5751 16.8462L87.7629 18.6738C88.4846 18.9946 89.2767 19.144 90.121 19.144V17.144ZM88.5891 16.8525C88.1419 16.6455 87.8191 16.3847 87.5884 16.082L85.9976 17.294C86.4496 17.8873 87.0441 18.3412 87.7489 18.6675L88.5891 16.8525ZM87.5976 16.0941C87.3793 15.7984 87.2676 15.4875 87.2473 15.1413L85.2507 15.2587C85.2944 16.0005 85.5454 16.6816 85.9884 17.2819L87.5976 16.0941ZM86.249 16.2H88.505V14.2H86.249V16.2ZM87.5127 15.324C87.5904 15.9457 87.9038 16.4615 88.3871 16.8374L89.6149 15.2586C89.5222 15.1865 89.5049 15.1369 89.4973 15.076L87.5127 15.324ZM88.401 16.848C88.9012 17.2231 89.4897 17.384 90.105 17.384V15.384C89.8456 15.384 89.6982 15.3209 89.601 15.248L88.401 16.848ZM90.105 17.384C90.6481 17.384 91.2162 17.2778 91.6852 16.9367L90.5088 15.3193C90.5085 15.3195 90.4152 15.384 90.105 15.384V17.384ZM91.6681 16.9489C92.1444 16.6176 92.465 16.1095 92.465 15.472H90.465C90.465 15.4614 90.4663 15.4424 90.4725 15.418C90.4788 15.3931 90.4885 15.3687 90.5009 15.3467C90.5264 15.3012 90.548 15.2917 90.5259 15.3071L91.6681 16.9489ZM92.465 15.472C92.465 15.1456 92.377 14.815 92.1722 14.5225C91.9731 14.2381 91.7056 14.0492 91.4381 13.925L90.5959 15.739C90.6271 15.7535 90.5835 15.7405 90.5338 15.6695C90.5093 15.6345 90.4904 15.5952 90.4786 15.5555C90.4671 15.5167 90.465 15.487 90.465 15.472H92.465ZM91.4773 13.9442C91.0879 13.7423 90.5361 13.56 89.8827 13.3858L89.3673 15.3182C89.9939 15.4853 90.3701 15.623 90.5567 15.7198L91.4773 13.9442ZM89.8602 13.38C89.2254 13.2265 88.7312 13.0742 88.3644 12.9275L87.6216 14.7845C88.1082 14.9791 88.7019 15.1575 89.3898 15.324L89.8602 13.38ZM88.3726 12.9308C88.1053 12.8212 87.8681 12.6531 87.6562 12.4119L86.1538 13.7321C86.5605 14.1949 87.0487 14.5495 87.6134 14.7812L88.3726 12.9308ZM87.6675 12.425C87.5626 12.3014 87.457 12.0794 87.457 11.648H85.457C85.457 12.4113 85.6501 13.1386 86.1425 13.719L87.6675 12.425ZM87.457 11.648C87.457 11.3591 87.5347 11.1079 87.6983 10.8687L86.0477 9.73932C85.6567 10.3108 85.457 10.9556 85.457 11.648H87.457ZM87.6882 10.8832C87.8582 10.6439 88.1133 10.4293 88.4986 10.2563L87.6794 8.43173C87.0194 8.72806 86.4638 9.15341 86.0578 9.72479L87.6882 10.8832ZM88.4917 10.2593C88.8728 10.0916 89.3544 9.992 89.961 9.992V7.992C89.1383 7.992 88.3718 8.12703 87.6863 8.42869L88.4917 10.2593ZM89.961 9.992C90.8481 9.992 91.4396 10.2134 91.8425 10.5549L93.1355 9.0291C92.2798 8.3039 91.1859 7.992 89.961 7.992V9.992ZM91.8501 10.5613C92.2481 10.8918 92.4848 11.3376 92.5315 11.9912L94.5265 11.8488C94.4452 10.7104 93.9886 9.73751 93.1279 9.02271L91.8501 10.5613ZM93.529 10.92H91.385V12.92H93.529V10.92ZM92.3809 11.8295C92.3251 11.2152 92.0459 10.6747 91.5421 10.2918L90.3319 11.8842C90.3588 11.9046 90.3658 11.9171 90.3685 11.9221C90.3719 11.9283 90.3838 11.9525 90.3891 12.0105L92.3809 11.8295ZM91.5772 10.3198C91.0918 9.91533 90.4943 9.768 89.897 9.768V11.768C90.1743 11.768 90.2702 11.834 90.2968 11.8562L91.5772 10.3198ZM89.897 9.768C89.3878 9.768 88.8501 9.85873 88.3983 10.1599L89.5077 11.824C89.5039 11.8266 89.5956 11.768 89.897 11.768V9.768ZM88.3795 10.1728C87.8913 10.5145 87.633 11.0324 87.633 11.616H89.633C89.633 11.616 89.633 11.6188 89.6324 11.624C89.6319 11.6292 89.6308 11.6368 89.6287 11.6463C89.6243 11.6659 89.6162 11.6902 89.6028 11.7163C89.5737 11.7732 89.5378 11.8033 89.5265 11.8112L88.3795 10.1728ZM87.633 11.616C87.633 11.9406 87.717 12.2659 87.907 12.5577C88.0928 12.843 88.3461 13.0447 88.6088 13.1855L89.5532 11.4225C89.5173 11.4033 89.5465 11.4103 89.583 11.4663C89.6008 11.4936 89.6146 11.5242 89.6233 11.5548C89.6317 11.5849 89.633 11.6067 89.633 11.616H87.633ZM88.6338 13.1984C89.0313 13.3972 89.5799 13.5728 90.2266 13.7372L90.7194 11.7988C90.1074 11.6432 89.728 11.5095 89.5282 11.4096L88.6338 13.1984ZM90.2305 13.7381C90.8432 13.8913 91.3213 14.0431 91.6774 14.1892L92.4366 12.3388C91.9607 12.1436 91.3828 11.9647 90.7155 11.7979L90.2305 13.7381ZM91.6774 14.1892C91.9338 14.2944 92.1584 14.4585 92.3571 14.6997L93.9009 13.4283C93.5022 12.9442 93.0122 12.575 92.4366 12.3388L91.6774 14.1892ZM92.3778 14.7241C92.4946 14.857 92.6017 15.0787 92.6092 15.4902L94.6088 15.4538C94.595 14.692 94.382 13.975 93.8802 13.4039L92.3778 14.7241ZM92.609 15.472C92.609 15.783 92.5258 16.038 92.3618 16.2688L93.9922 17.4272C94.4042 16.8474 94.609 16.185 94.609 15.472H92.609ZM92.3517 16.2833C92.198 16.508 91.953 16.719 91.5583 16.8927L92.3637 18.7233C93.0357 18.4277 93.6014 17.9987 94.0023 17.4127L92.3517 16.2833ZM91.5671 16.8889C91.1947 17.0484 90.7209 17.144 90.121 17.144V19.144C90.9291 19.144 91.6819 19.0156 92.3549 18.7271L91.5671 16.8889ZM98.0558 10.976V9.976H97.0558V10.976H98.0558ZM98.2637 15.92L97.5566 16.6271L97.5838 16.6543L97.613 16.6793L98.2637 15.92ZM100.04 16.112H101.04V15.112H100.04V16.112ZM100.04 18V19H101.04V18H100.04ZM95.7998 10.976H96.7998V9.976H95.7998V10.976ZM94.7438 10.976H93.7438V11.976H94.7438V10.976ZM94.7438 9.136V8.136H93.7438V9.136H94.7438ZM95.7998 9.136V10.136H96.7998V9.136H95.7998ZM95.7998 6.944V5.944H94.7998V6.944H95.7998ZM98.0558 6.944H99.0558V5.944H98.0558V6.944ZM98.0558 9.136H97.0558V10.136H98.0558V9.136ZM100.04 9.136H101.04V8.136H100.04V9.136ZM100.04 10.976V11.976H101.04V10.976H100.04ZM97.0558 10.976V15.264H99.0558V10.976H97.0558ZM97.0558 15.264C97.0558 15.6916 97.1522 16.2226 97.5566 16.6271L98.9709 15.2129C99.0004 15.2424 99.022 15.2721 99.037 15.2979C99.0517 15.3232 99.0585 15.3419 99.061 15.3498C99.065 15.3626 99.0558 15.34 99.0558 15.264H97.0558ZM97.613 16.6793C98.036 17.0419 98.5793 17.112 98.9997 17.112V15.112C98.9452 15.112 98.9025 15.1094 98.8702 15.1059C98.8378 15.1024 98.8193 15.0982 98.8122 15.0964C98.7954 15.092 98.8456 15.1017 98.9145 15.1607L97.613 16.6793ZM98.9997 17.112H100.04V15.112H98.9997V17.112ZM99.0397 16.112V18H101.04V16.112H99.0397ZM100.04 17H98.6318V19H100.04V17ZM98.6318 17C97.8348 17 97.4221 16.8062 97.2047 16.5948C96.9925 16.3887 96.7998 16.0038 96.7998 15.248H94.7998C94.7998 16.3269 95.079 17.318 95.8108 18.0292C96.5374 18.7352 97.5407 19 98.6318 19V17ZM96.7998 15.248V10.976H94.7998V15.248H96.7998ZM95.7998 9.976H94.7438V11.976H95.7998V9.976ZM95.7438 10.976V9.136H93.7438V10.976H95.7438ZM94.7438 10.136H95.7998V8.136H94.7438V10.136ZM96.7998 9.136V6.944H94.7998V9.136H96.7998ZM95.7998 7.944H98.0558V5.944H95.7998V7.944ZM97.0558 6.944V9.136H99.0558V6.944H97.0558ZM98.0558 10.136H100.04V8.136H98.0558V10.136ZM99.0397 9.136V10.976H101.04V9.136H99.0397ZM100.04 9.976H98.0558V11.976H100.04V9.976ZM109.827 14.24V15.24H110.674L110.813 14.4044L109.827 14.24ZM103.347 14.24V13.24H102.26L102.35 14.323L103.347 14.24ZM104.019 15.744L103.342 16.4803L104.019 15.744ZM107.251 15.216V14.216H106.629L106.354 14.7741L107.251 15.216ZM109.667 15.216L110.625 15.5033L111.011 14.216H109.667V15.216ZM108.195 17.328L108.795 18.128L108.802 18.1224L108.195 17.328ZM103.219 17.584L102.723 18.4522L102.731 18.4569L102.739 18.4614L103.219 17.584ZM101.635 15.968L100.754 16.4421L100.76 16.4525L101.635 15.968ZM101.635 11.152L100.754 10.6779L101.635 11.152ZM103.203 9.552L103.689 10.4262V10.4262L103.203 9.552ZM107.779 9.536L107.298 10.4128L107.304 10.416L107.779 9.536ZM109.331 11.088L108.451 11.5629L108.455 11.5713L108.46 11.5796L109.331 11.088ZM107.571 12.736V13.736H108.59L108.571 12.7175L107.571 12.736ZM106.947 11.36L106.291 12.115L106.297 12.12L106.303 12.1249L106.947 11.36ZM104.051 11.344L104.714 12.0926L104.715 12.0914L104.051 11.344ZM103.363 12.736L102.373 12.5946L102.21 13.736H103.363V12.736ZM108.891 13.376C108.891 13.6531 108.872 13.8847 108.84 14.0756L110.813 14.4044C110.867 14.0833 110.891 13.7389 110.891 13.376H108.891ZM109.827 13.24H103.347V15.24H109.827V13.24ZM102.35 14.323C102.42 15.1608 102.727 15.9152 103.342 16.4803L104.695 15.0077C104.521 14.8474 104.38 14.5992 104.343 14.157L102.35 14.323ZM103.342 16.4803C103.936 17.0259 104.669 17.288 105.475 17.288V15.288C105.129 15.288 104.891 15.1874 104.695 15.0077L103.342 16.4803ZM105.475 17.288C106.036 17.288 106.579 17.1664 107.06 16.8761C107.543 16.5843 107.901 16.1601 108.148 15.6579L106.354 14.7741C106.249 14.9866 106.135 15.0984 106.026 15.1639C105.915 15.2309 105.746 15.288 105.475 15.288V17.288ZM107.251 16.216H109.667V14.216H107.251V16.216ZM108.709 14.9287C108.515 15.575 108.15 16.1035 107.587 16.5336L108.802 18.1224C109.69 17.4432 110.307 16.5637 110.625 15.5033L108.709 14.9287ZM107.595 16.528C107.07 16.9216 106.399 17.144 105.523 17.144V19.144C106.758 19.144 107.869 18.8224 108.795 18.128L107.595 16.528ZM105.523 17.144C104.821 17.144 104.22 16.9919 103.699 16.7066L102.739 18.4614C103.583 18.9228 104.518 19.144 105.523 19.144V17.144ZM103.715 16.7158C103.206 16.4249 102.807 16.0207 102.51 15.4835L100.76 16.4525C101.231 17.302 101.888 17.9751 102.723 18.4522L103.715 16.7158ZM102.515 15.4939C102.232 14.967 102.075 14.3344 102.075 13.568H100.075C100.075 14.6149 100.291 15.5823 100.754 16.4421L102.515 15.4939ZM102.075 13.568C102.075 12.7887 102.233 12.1514 102.515 11.6261L100.754 10.6779C100.291 11.5393 100.075 12.5126 100.075 13.568H102.075ZM102.515 11.6261C102.8 11.0968 103.188 10.7043 103.689 10.4262L102.717 8.67784C101.874 9.1464 101.216 9.82054 100.754 10.6779L102.515 11.6261ZM103.689 10.4262C104.193 10.1462 104.794 9.992 105.523 9.992V7.992C104.502 7.992 103.557 8.21117 102.717 8.67784L103.689 10.4262ZM105.523 9.992C106.218 9.992 106.801 10.1401 107.298 10.4128L108.26 8.65919C107.434 8.20657 106.514 7.992 105.523 7.992V9.992ZM107.304 10.416C107.804 10.6861 108.181 11.0626 108.451 11.5629L110.211 10.6131C109.756 9.76942 109.097 9.11128 108.254 8.65598L107.304 10.416ZM108.46 11.5796C108.738 12.0713 108.891 12.6602 108.891 13.376H110.891C110.891 12.3638 110.671 11.4274 110.202 10.5964L108.46 11.5796ZM108.571 12.7175C108.555 11.8814 108.238 11.1398 107.591 10.5951L106.303 12.1249C106.467 12.2629 106.565 12.4386 106.571 12.7545L108.571 12.7175ZM107.603 10.605C106.998 10.0799 106.262 9.832 105.459 9.832V11.832C105.829 11.832 106.085 11.9361 106.291 12.115L107.603 10.605ZM105.459 9.832C104.68 9.832 103.969 10.079 103.387 10.5966L104.715 12.0914C104.901 11.9263 105.128 11.832 105.459 11.832V9.832ZM103.388 10.5954C102.802 11.1146 102.484 11.8139 102.373 12.5946L104.353 12.8774C104.412 12.4635 104.553 12.2347 104.714 12.0926L103.388 10.5954ZM103.363 13.736H107.571V11.736H103.363V13.736ZM118.998 10.016L118.279 10.7116L118.285 10.7173L118.998 10.016ZM119.974 18V19H120.974V18H119.974ZM117.734 18H116.734V19H117.734V18ZM117.206 11.488L116.469 12.1638L116.478 12.174L117.206 11.488ZM114.294 11.488L113.567 10.8014L113.566 10.802L114.294 11.488ZM113.766 18V19H114.766V18H113.766ZM111.526 18H110.526V19H111.526V18ZM111.526 9.136V8.136H110.526V9.136H111.526ZM113.766 9.136H114.766V8.136H113.766V9.136ZM113.766 10.24H112.766V13.1545L114.555 10.8539L113.766 10.24ZM114.902 9.344L115.324 10.2508L115.333 10.2465L114.902 9.344ZM116.438 10.008C117.261 10.008 117.842 10.26 118.279 10.7116L119.716 9.32039C118.852 8.42795 117.726 8.008 116.438 8.008V10.008ZM118.285 10.7173C118.703 11.1421 118.974 11.789 118.974 12.8H120.974C120.974 11.4217 120.594 10.2125 119.711 9.31466L118.285 10.7173ZM118.974 12.8V18H120.974V12.8H118.974ZM119.974 17H117.734V19H119.974V17ZM118.734 18V13.104H116.734V18H118.734ZM118.734 13.104C118.734 12.2411 118.517 11.4207 117.933 10.802L116.478 12.174C116.599 12.302 116.734 12.5589 116.734 13.104H118.734ZM117.943 10.8123C117.37 10.1866 116.603 9.912 115.766 9.912V11.912C116.145 11.912 116.338 12.0214 116.469 12.1637L117.943 10.8123ZM115.766 9.912C114.923 9.912 114.151 10.1829 113.567 10.8014L115.021 12.1746C115.162 12.0251 115.371 11.912 115.766 11.912V9.912ZM113.566 10.802C112.983 11.4207 112.766 12.2411 112.766 13.104H114.766C114.766 12.5589 114.901 12.302 115.021 12.174L113.566 10.802ZM112.766 13.104V18H114.766V13.104H112.766ZM113.766 17H111.526V19H113.766V17ZM112.526 18V9.136H110.526V18H112.526ZM111.526 10.136H113.766V8.136H111.526V10.136ZM112.766 9.136V10.24H114.766V9.136H112.766ZM114.555 10.8539C114.752 10.6004 115.003 10.3998 115.324 10.2507L114.48 8.43728C113.883 8.71486 113.377 9.11159 112.977 9.62606L114.555 10.8539ZM115.333 10.2465C115.659 10.0909 116.022 10.008 116.438 10.008V8.008C115.744 8.008 115.084 8.14909 114.471 8.44152L115.333 10.2465ZM74.28 30.832H75.28V29.832H74.28V30.832ZM74.28 42V43H75.28V42H74.28ZM72.04 42H71.04V43H72.04V42ZM72.04 34.736H73.04L71.1154 34.3551L72.04 34.736ZM69.048 42V43H69.7176L69.9726 42.3809L69.048 42ZM67.352 42L66.4281 42.3826L66.6837 43H67.352V42ZM64.344 34.736L65.2679 34.3534L63.344 34.736H64.344ZM64.344 42V43H65.344V42H64.344ZM62.104 42H61.104V43H62.104V42ZM62.104 30.832V29.832H61.104V30.832H62.104ZM64.648 30.832L65.5674 30.4387L65.3079 29.832H64.648V30.832ZM68.2 39.136L67.2806 39.5293L68.2 41.6787L69.1194 39.5293L68.2 39.136ZM71.752 30.832V29.832H71.0921L70.8326 30.4387L71.752 30.832ZM73.28 30.832V42H75.28V30.832H73.28ZM74.28 41H72.04V43H74.28V41ZM73.04 42V34.736H71.04V42H73.04ZM71.1154 34.3551L68.1234 41.6191L69.9726 42.3809L72.9646 35.1169L71.1154 34.3551ZM69.048 41H67.352V43H69.048V41ZM68.2759 41.6174L65.2679 34.3534L63.4201 35.1186L66.4281 42.3826L68.2759 41.6174ZM63.344 34.736V42H65.344V34.736H63.344ZM64.344 41H62.104V43H64.344V41ZM63.104 42V30.832H61.104V42H63.104ZM62.104 31.832H64.648V29.832H62.104V31.832ZM63.7286 31.2253L67.2806 39.5293L69.1194 38.7427L65.5674 30.4387L63.7286 31.2253ZM69.1194 39.5293L72.6714 31.2253L70.8326 30.4387L67.2806 38.7427L69.1194 39.5293ZM71.752 31.832H74.28V29.832H71.752V31.832ZM84.8626 33.136H85.8626V32.136H84.8626V33.136ZM84.8626 42V43H85.8626V42H84.8626ZM82.6066 42H81.6066V43H82.6066V42ZM82.6066 40.88H83.6066V37.88L81.8066 40.28L82.6066 40.88ZM81.4706 41.792L81.8924 42.6988L81.9014 42.6945L81.4706 41.792ZM78.1266 41.68L77.638 42.5525L77.6447 42.5563L77.6515 42.5599L78.1266 41.68ZM76.8626 40.384L75.9749 40.8443L75.98 40.8542L75.9854 40.864L76.8626 40.384ZM76.4146 33.136V32.136H75.4146V33.136H76.4146ZM78.6546 33.136H79.6546V32.136H78.6546V33.136ZM79.1826 39.648L78.4454 40.3238L78.455 40.334L79.1826 39.648ZM82.0786 39.648L82.8063 40.3341L82.8158 40.3237L82.0786 39.648ZM82.6066 33.136V32.136H81.6066V33.136H82.6066ZM83.8626 33.136V42H85.8626V33.136H83.8626ZM84.8626 41H82.6066V43H84.8626V41ZM83.6066 42V40.88H81.6066V42H83.6066ZM81.8066 40.28C81.6234 40.5243 81.376 40.7291 81.0399 40.8895L81.9014 42.6945C82.504 42.4069 83.0138 42.0037 83.4066 41.48L81.8066 40.28ZM81.0489 40.8853C80.7321 41.0326 80.3761 41.112 79.9666 41.112V43.112C80.6451 43.112 81.2918 42.978 81.8924 42.6987L81.0489 40.8853ZM79.9666 41.112C79.4151 41.112 78.9693 40.9986 78.6018 40.8001L77.6515 42.5599C78.3506 42.9374 79.1315 43.112 79.9666 43.112V41.112ZM78.6152 40.8075C78.2548 40.6057 77.9642 40.314 77.7399 39.904L75.9854 40.864C76.3797 41.5847 76.9318 42.157 77.638 42.5525L78.6152 40.8075ZM77.7504 39.9237C77.5398 39.5175 77.4146 38.9994 77.4146 38.336H75.4146C75.4146 39.2513 75.5881 40.0985 75.9749 40.8443L77.7504 39.9237ZM77.4146 38.336V33.136H75.4146V38.336H77.4146ZM76.4146 34.136H78.6546V32.136H76.4146V34.136ZM77.6546 33.136V38.016H79.6546V33.136H77.6546ZM77.6546 38.016C77.6546 38.881 77.8725 39.6987 78.4455 40.3237L79.9198 38.9723C79.7888 38.8293 79.6546 38.559 79.6546 38.016H77.6546ZM78.455 40.334C79.0308 40.9447 79.7945 41.208 80.6226 41.208V39.208C80.2348 39.208 80.0384 39.098 79.9102 38.962L78.455 40.334ZM80.6226 41.208C81.4556 41.208 82.2271 40.9482 82.8062 40.334L81.351 38.962C81.2262 39.0944 81.027 39.208 80.6226 39.208V41.208ZM82.8158 40.3237C83.3888 39.6987 83.6066 38.881 83.6066 38.016H81.6066C81.6066 38.559 81.4725 38.8293 81.3415 38.9723L82.8158 40.3237ZM83.6066 38.016V33.136H81.6066V38.016H83.6066ZM82.6066 34.136H84.8626V32.136H82.6066V34.136ZM93.8568 33.456L93.3606 34.3242L93.3673 34.3281L93.3741 34.3318L93.8568 33.456ZM95.0728 34.752L94.1783 35.1992L94.1833 35.2092L94.1886 35.2191L95.0728 34.752ZM95.5208 42V43H96.5208V42H95.5208ZM93.2808 42H92.2808V43H93.2808V42ZM92.7528 35.488L92.0155 36.1638L92.0252 36.174L92.7528 35.488ZM89.8407 35.488L89.1137 34.8014L89.1132 34.802L89.8407 35.488ZM89.3127 42V43H90.3127V42H89.3127ZM87.0728 42H86.0728V43H87.0728V42ZM87.0728 30.16V29.16H86.0728V30.16H87.0728ZM89.3127 30.16H90.3127V29.16H89.3127V30.16ZM89.3127 34.24H88.3127V37.24L90.1128 34.84L89.3127 34.24ZM90.4648 33.344L90.8709 34.2578L90.8793 34.2541L90.8876 34.2502L90.4648 33.344ZM92.0648 34.008C92.5834 34.008 93.006 34.1216 93.3606 34.3242L94.3529 32.5878C93.6621 32.193 92.8901 32.008 92.0648 32.008V34.008ZM93.3741 34.3318C93.7051 34.5142 93.9734 34.7894 94.1783 35.1992L95.9672 34.3048C95.5961 33.5625 95.0538 32.9738 94.3394 32.5802L93.3741 34.3318ZM94.1886 35.2191C94.3944 35.6088 94.5208 36.1227 94.5208 36.8H96.5208C96.5208 35.8773 96.3484 35.0259 95.9569 34.2849L94.1886 35.2191ZM94.5208 36.8V42H96.5208V36.8H94.5208ZM95.5208 41H93.2808V43H95.5208V41ZM94.2808 42V37.104H92.2808V42H94.2808ZM94.2808 37.104C94.2808 36.2411 94.0637 35.4207 93.4803 34.802L92.0252 36.174C92.1458 36.302 92.2808 36.5589 92.2808 37.104H94.2808ZM93.4899 34.8123C92.9164 34.1866 92.1498 33.912 91.3127 33.912V35.912C91.6917 35.912 91.8851 36.0214 92.0156 36.1637L93.4899 34.8123ZM91.3127 33.912C90.4702 33.912 89.6979 34.1829 89.1137 34.8014L90.5678 36.1746C90.709 36.0251 90.9179 35.912 91.3127 35.912V33.912ZM89.1132 34.802C88.5298 35.4207 88.3127 36.2411 88.3127 37.104H90.3127C90.3127 36.5589 90.4477 36.302 90.5683 36.174L89.1132 34.802ZM88.3127 37.104V42H90.3127V37.104H88.3127ZM89.3127 41H87.0728V43H89.3127V41ZM88.0728 42V30.16H86.0728V42H88.0728ZM87.0728 31.16H89.3127V29.16H87.0728V31.16ZM88.3127 30.16V34.24H90.3127V30.16H88.3127ZM90.1128 34.84C90.2889 34.6051 90.5317 34.4086 90.8709 34.2578L90.0586 32.4302C89.4378 32.7061 88.9126 33.1069 88.5128 33.64L90.1128 34.84ZM90.8876 34.2502C91.2216 34.0943 91.6084 34.008 92.0648 34.008V32.008C91.3478 32.008 90.6679 32.1457 90.0419 32.4378L90.8876 34.2502ZM97.6029 35.152L96.7167 34.6885L96.7112 34.6993L97.6029 35.152ZM99.0589 33.552L98.5422 32.6958L98.5356 32.6998L99.0589 33.552ZM102.851 33.392L102.373 34.2707L102.381 34.2749L102.851 33.392ZM104.051 34.4L103.246 34.9932L105.051 37.4429V34.4H104.051ZM104.051 33.136V32.136H103.051V33.136H104.051ZM106.307 33.136H107.307V32.136H106.307V33.136ZM106.307 42V43H107.307V42H106.307ZM104.051 42H103.051V43H104.051V42ZM104.051 40.704H105.051V37.5027L103.229 40.1348L104.051 40.704ZM102.851 41.744L103.321 42.6269L103.327 42.6233L102.851 41.744ZM99.0589 41.568L98.5249 42.4135L98.5315 42.4176L99.0589 41.568ZM97.6029 39.952L96.7084 40.3992L96.7125 40.4074L96.7168 40.4155L97.6029 39.952ZM103.731 36.176L102.851 36.6516L102.857 36.6616L103.731 36.176ZM102.867 35.28L102.36 36.1419L102.369 36.1475L102.379 36.1529L102.867 35.28ZM100.547 35.264L100.048 34.3974H100.048L100.547 35.264ZM99.6829 36.16L98.8132 35.6664L98.8087 35.6744L99.6829 36.16ZM99.6829 38.944L98.798 39.4097L98.8054 39.4238L98.8132 39.4376L99.6829 38.944ZM100.547 39.856L100.029 40.7113L100.04 40.7179L100.547 39.856ZM102.867 39.872L103.355 40.7449L103.364 40.7395L103.374 40.7339L102.867 39.872ZM103.731 38.976L104.605 39.4617L104.611 39.4515L103.731 38.976ZM98.0749 37.536C98.0749 36.7733 98.2239 36.1378 98.4945 35.6047L96.7112 34.6993C96.2779 35.5529 96.0749 36.5067 96.0749 37.536H98.0749ZM98.489 35.6155C98.7763 35.0661 99.1426 34.6741 99.5821 34.4042L98.5356 32.6998C97.7592 33.1766 97.1548 33.8512 96.7168 34.6885L98.489 35.6155ZM99.5755 34.4082C100.031 34.1336 100.538 33.992 101.123 33.992V31.992C100.193 31.992 99.3244 32.2238 98.5422 32.6958L99.5755 34.4082ZM101.123 33.992C101.648 33.992 102.054 34.0971 102.373 34.2706L103.328 32.5134C102.666 32.1536 101.92 31.992 101.123 31.992V33.992ZM102.381 34.2749C102.767 34.4803 103.047 34.7229 103.246 34.9932L104.856 33.8068C104.458 33.2665 103.937 32.837 103.32 32.5091L102.381 34.2749ZM105.051 34.4V33.136H103.051V34.4H105.051ZM104.051 34.136H106.307V32.136H104.051V34.136ZM105.307 33.136V42H107.307V33.136H105.307ZM106.307 41H104.051V43H106.307V41ZM105.051 42V40.704H103.051V42H105.051ZM103.229 40.1348C103.043 40.4035 102.769 40.6508 102.375 40.8647L103.327 42.6233C103.956 42.2825 104.483 41.8365 104.873 41.2732L103.229 40.1348ZM102.381 40.8611C102.047 41.0391 101.631 41.144 101.107 41.144V43.144C101.905 43.144 102.652 42.9822 103.32 42.6269L102.381 40.8611ZM101.107 41.144C100.542 41.144 100.042 41.0015 99.5862 40.7184L98.5315 42.4176C99.3127 42.9025 100.179 43.144 101.107 43.144V41.144ZM99.5929 40.7225C99.1468 40.4408 98.7774 40.0399 98.489 39.4885L96.7168 40.4155C97.1537 41.2508 97.7549 41.9272 98.5249 42.4135L99.5929 40.7225ZM98.4973 39.5048C98.2246 38.9593 98.0749 38.3111 98.0749 37.536H96.0749C96.0749 38.5743 96.2772 39.5367 96.7084 40.3992L98.4973 39.5048ZM105.051 37.568C105.051 36.8941 104.918 36.2544 104.605 35.6904L102.857 36.6616C102.97 36.8656 103.051 37.1539 103.051 37.568H105.051ZM104.611 35.7005C104.314 35.1527 103.896 34.7097 103.355 34.4071L102.379 36.1529C102.563 36.2556 102.721 36.4099 102.851 36.6515L104.611 35.7005ZM103.374 34.4181C102.859 34.1154 102.295 33.96 101.699 33.96V35.96C101.934 35.96 102.149 36.0179 102.36 36.1419L103.374 34.4181ZM101.699 33.96C101.112 33.96 100.555 34.1051 100.048 34.3974L101.046 36.1306C101.242 36.0175 101.454 35.96 101.699 35.96V33.96ZM100.048 34.3974C99.5237 34.6992 99.1147 35.1352 98.8132 35.6664L100.553 36.6536C100.699 36.3955 100.866 36.2341 101.046 36.1306L100.048 34.3974ZM98.8087 35.6744C98.4969 36.2356 98.3629 36.8689 98.3629 37.536H100.363C100.363 37.1364 100.442 36.8524 100.557 36.6456L98.8087 35.6744ZM98.3629 37.536C98.3629 38.2049 98.4975 38.8389 98.798 39.4097L100.568 38.4783C100.442 38.2385 100.363 37.9338 100.363 37.536H98.3629ZM98.8132 39.4376C99.1127 39.9652 99.5159 40.4005 100.029 40.7112L101.065 39.0008C100.874 38.8849 100.701 38.7121 100.553 38.4504L98.8132 39.4376ZM100.04 40.7179C100.55 41.0181 101.108 41.176 101.699 41.176V39.176C101.479 39.176 101.269 39.1206 101.054 38.9941L100.04 40.7179ZM101.699 41.176C102.285 41.176 102.843 41.031 103.355 40.7449L102.379 38.9991C102.166 39.1183 101.944 39.176 101.699 39.176V41.176ZM103.374 40.7339C103.897 40.4261 104.309 39.9944 104.605 39.4616L102.857 38.4904C102.726 38.7256 102.562 38.8912 102.36 39.0101L103.374 40.7339ZM104.611 39.4515C104.918 38.8828 105.051 38.243 105.051 37.568H103.051C103.051 37.981 102.97 38.2799 102.851 38.5005L104.611 39.4515ZM112.559 34.976V35.976H113.559V34.976H112.559ZM111.007 34.976V33.976H110.007V34.976H111.007ZM111.007 42V43H112.007V42H111.007ZM108.735 42H107.735V43H108.735V42ZM108.735 34.976H109.735V33.976H108.735V34.976ZM107.727 34.976H106.727V35.976H107.727V34.976ZM107.727 33.136V32.136H106.727V33.136H107.727ZM108.735 33.136V34.136H109.735V33.136H108.735ZM109.663 30.288L109.025 29.5176L109.663 30.288ZM112.463 29.568H113.463V28.5933L112.488 28.5683L112.463 29.568ZM112.463 31.456L112.443 32.4558L113.463 32.4758V31.456H112.463ZM111.327 31.728L110.658 30.9847L111.327 31.728ZM111.007 33.136H110.007V34.136H111.007V33.136ZM112.559 33.136H113.559V32.136H112.559V33.136ZM112.559 33.976H111.007V35.976H112.559V33.976ZM110.007 34.976V42H112.007V34.976H110.007ZM111.007 41H108.735V43H111.007V41ZM109.735 42V34.976H107.735V42H109.735ZM108.735 33.976H107.727V35.976H108.735V33.976ZM108.727 34.976V33.136H106.727V34.976H108.727ZM107.727 34.136H108.735V32.136H107.727V34.136ZM109.735 33.136V32.688H107.735V33.136H109.735ZM109.735 32.688C109.735 31.7859 109.985 31.319 110.3 31.0584L109.025 29.5176C108.103 30.281 107.735 31.4141 107.735 32.688H109.735ZM110.3 31.0584C110.653 30.766 111.303 30.5386 112.437 30.5677L112.488 28.5683C111.127 28.5334 109.909 28.786 109.025 29.5176L110.3 31.0584ZM111.463 29.568V31.456H113.463V29.568H111.463ZM112.482 30.4562C111.885 30.4445 111.169 30.5245 110.658 30.9847L111.996 32.4713C111.942 32.5196 111.921 32.5082 112.003 32.4885C112.085 32.4691 112.225 32.4515 112.443 32.4558L112.482 30.4562ZM110.658 30.9847C110.121 31.4678 110.007 32.1824 110.007 32.768H112.007C112.007 32.5819 112.027 32.4756 112.042 32.4261C112.056 32.3806 112.055 32.4182 111.996 32.4713L110.658 30.9847ZM110.007 32.768V33.136H112.007V32.768H110.007ZM111.007 34.136H112.559V32.136H111.007V34.136ZM111.559 33.136V34.976H113.559V33.136H111.559ZM118.074 34.976V35.976H119.074V34.976H118.074ZM116.522 34.976V33.976H115.522V34.976H116.522ZM116.522 42V43H117.522V42H116.522ZM114.25 42H113.25V43H114.25V42ZM114.25 34.976H115.25V33.976H114.25V34.976ZM113.242 34.976H112.242V35.976H113.242V34.976ZM113.242 33.136V32.136H112.242V33.136H113.242ZM114.25 33.136V34.136H115.25V33.136H114.25ZM115.178 30.288L114.541 29.5176L115.178 30.288ZM117.978 29.568H118.978V28.5933L118.004 28.5683L117.978 29.568ZM117.978 31.456L117.959 32.4558L118.978 32.4758V31.456H117.978ZM116.842 31.728L116.173 30.9847L116.842 31.728ZM116.522 33.136H115.522V34.136H116.522V33.136ZM118.074 33.136H119.074V32.136H118.074V33.136ZM118.074 33.976H116.522V35.976H118.074V33.976ZM115.522 34.976V42H117.522V34.976H115.522ZM116.522 41H114.25V43H116.522V41ZM115.25 42V34.976H113.25V42H115.25ZM114.25 33.976H113.242V35.976H114.25V33.976ZM114.242 34.976V33.136H112.242V34.976H114.242ZM113.242 34.136H114.25V32.136H113.242V34.136ZM115.25 33.136V32.688H113.25V33.136H115.25ZM115.25 32.688C115.25 31.7859 115.501 31.319 115.816 31.0584L114.541 29.5176C113.618 30.281 113.25 31.4141 113.25 32.688H115.25ZM115.816 31.0584C116.169 30.766 116.818 30.5386 117.953 30.5677L118.004 28.5683C116.642 28.5334 115.425 28.786 114.541 29.5176L115.816 31.0584ZM116.978 29.568V31.456H118.978V29.568H116.978ZM117.998 30.4562C117.401 30.4445 116.685 30.5245 116.173 30.9847L117.511 32.4713C117.458 32.5196 117.437 32.5082 117.519 32.4885C117.6 32.4691 117.741 32.4515 117.959 32.4558L117.998 30.4562ZM116.173 30.9847C115.636 31.4678 115.522 32.1824 115.522 32.768H117.522C117.522 32.5819 117.543 32.4756 117.558 32.4261C117.572 32.3806 117.57 32.4182 117.511 32.4713L116.173 30.9847ZM115.522 32.768V33.136H117.522V32.768H115.522ZM116.522 34.136H118.074V32.136H116.522V34.136ZM117.074 33.136V34.976H119.074V33.136H117.074ZM119.67 31.712L118.963 32.4191L118.977 32.4338L118.993 32.4479L119.67 31.712ZM119.67 29.84L120.362 30.562L120.362 30.5614L119.67 29.84ZM121.638 29.84L120.931 30.5471L120.945 30.5618L120.961 30.5759L121.638 29.84ZM121.638 31.712L122.33 32.434L122.33 32.4334L121.638 31.712ZM121.766 33.136H122.766V32.136H121.766V33.136ZM121.766 42V43H122.766V42H121.766ZM119.526 42H118.526V43H119.526V42ZM119.526 33.136V32.136H118.526V33.136H119.526ZM120.662 31.08C120.494 31.08 120.412 31.0358 120.347 30.9761L118.993 32.4479C119.461 32.8789 120.041 33.08 120.662 33.08V31.08ZM120.377 31.0049C120.315 30.9429 120.286 30.8854 120.286 30.768H118.286C118.286 31.3973 118.513 31.9691 118.963 32.4191L120.377 31.0049ZM120.286 30.768C120.286 30.6511 120.314 30.6078 120.362 30.562L118.978 29.118C118.514 29.5628 118.286 30.1382 118.286 30.768H120.286ZM120.362 30.5614C120.429 30.4971 120.506 30.456 120.662 30.456V28.456C120.028 28.456 119.444 28.6709 118.977 29.1186L120.362 30.5614ZM120.662 30.456C120.818 30.456 120.88 30.4965 120.931 30.5471L122.345 29.1329C121.884 28.6715 121.295 28.456 120.662 28.456V30.456ZM120.961 30.5759C121.015 30.6255 121.038 30.6647 121.038 30.768H123.038C123.038 30.1246 122.794 29.5452 122.315 29.1041L120.961 30.5759ZM121.038 30.768C121.038 30.8721 121.013 30.9253 120.945 30.9906L122.33 32.4334C122.796 31.9867 123.038 31.4106 123.038 30.768H121.038ZM120.946 30.99C120.898 31.0361 120.83 31.08 120.662 31.08V33.08C121.283 33.08 121.866 32.8785 122.33 32.434L120.946 30.99ZM120.766 33.136V42H122.766V33.136H120.766ZM121.766 41H119.526V43H121.766V41ZM120.526 42V33.136H118.526V42H120.526ZM119.526 34.136H121.766V32.136H119.526V34.136ZM123.931 35.152L123.045 34.6885L123.039 34.6993L123.931 35.152ZM125.403 33.552L125.92 34.4082L125.403 33.552ZM129.115 33.376L128.675 34.2741L128.683 34.2777L128.69 34.2812L129.115 33.376ZM130.363 34.368L129.561 34.9647L131.363 37.3887V34.368H130.363ZM130.363 30.16V29.16H129.363V30.16H130.363ZM132.635 30.16H133.635V29.16H132.635V30.16ZM132.635 42V43H133.635V42H132.635ZM130.363 42H129.363V43H130.363V42ZM130.363 40.688H131.363V37.2438L129.518 40.1525L130.363 40.688ZM129.195 41.744L128.725 40.8611L129.195 41.744ZM125.403 41.568L125.93 40.7184L125.403 41.568ZM123.931 39.952L123.037 40.3992L123.041 40.4074L123.045 40.4155L123.931 39.952ZM130.059 36.176L129.179 36.6516L129.185 36.6616L130.059 36.176ZM129.195 35.28L128.688 36.1419L128.698 36.1475L128.707 36.1529L129.195 35.28ZM126.875 35.264L126.376 34.3974L126.875 35.264ZM126.011 36.16L125.141 35.6664L125.137 35.6744L126.011 36.16ZM126.011 38.944L125.126 39.4097L125.133 39.4238L125.141 39.4376L126.011 38.944ZM126.875 39.856L126.357 40.7113L126.368 40.7179L126.875 39.856ZM129.195 39.872L129.683 40.7449L129.692 40.7395L129.702 40.7339L129.195 39.872ZM130.059 38.976L130.933 39.4617L130.939 39.4515L130.059 38.976ZM124.403 37.536C124.403 36.7733 124.552 36.1378 124.823 35.6047L123.039 34.6993C122.606 35.5529 122.403 36.5067 122.403 37.536H124.403ZM124.817 35.6155C125.102 35.0705 125.471 34.6791 125.92 34.4082L124.886 32.6958C124.098 33.1716 123.485 33.8469 123.045 34.6885L124.817 35.6155ZM125.92 34.4082C126.375 34.1336 126.883 33.992 127.467 33.992V31.992C126.537 31.992 125.669 32.2238 124.886 32.6958L125.92 34.4082ZM127.467 33.992C127.889 33.992 128.288 34.0844 128.675 34.2741L129.555 32.4779C128.897 32.1556 128.197 31.992 127.467 31.992V33.992ZM128.69 34.2812C129.081 34.4646 129.36 34.6956 129.561 34.9647L131.165 33.7713C130.747 33.2084 130.195 32.7781 129.54 32.4708L128.69 34.2812ZM131.363 34.368V30.16H129.363V34.368H131.363ZM130.363 31.16H132.635V29.16H130.363V31.16ZM131.635 30.16V42H133.635V30.16H131.635ZM132.635 41H130.363V43H132.635V41ZM131.363 42V40.688H129.363V42H131.363ZM129.518 40.1525C129.343 40.4296 129.089 40.6678 128.725 40.8611L129.665 42.6269C130.304 42.2869 130.829 41.821 131.208 41.2235L129.518 40.1525ZM128.725 40.8611C128.391 41.0391 127.976 41.144 127.451 41.144V43.144C128.249 43.144 128.997 42.9822 129.665 42.6269L128.725 40.8611ZM127.451 41.144C126.886 41.144 126.386 41.0015 125.93 40.7184L124.876 42.4176C125.657 42.9025 126.523 43.144 127.451 43.144V41.144ZM125.93 40.7184C125.475 40.4357 125.103 40.0356 124.817 39.4885L123.045 40.4155C123.484 41.2551 124.094 41.9323 124.876 42.4176L125.93 40.7184ZM124.825 39.5048C124.553 38.9593 124.403 38.3111 124.403 37.536H122.403C122.403 38.5743 122.605 39.5367 123.037 40.3992L124.825 39.5048ZM131.379 37.568C131.379 36.8941 131.246 36.2544 130.933 35.6904L129.185 36.6616C129.298 36.8656 129.379 37.1539 129.379 37.568H131.379ZM130.939 35.7005C130.643 35.1527 130.224 34.7097 129.683 34.4071L128.707 36.1529C128.891 36.2556 129.049 36.4099 129.179 36.6515L130.939 35.7005ZM129.702 34.4181C129.188 34.1154 128.623 33.96 128.027 33.96V35.96C128.263 35.96 128.477 36.0179 128.688 36.1419L129.702 34.4181ZM128.027 33.96C127.44 33.96 126.884 34.1051 126.376 34.3974L127.374 36.1306C127.57 36.0175 127.782 35.96 128.027 35.96V33.96ZM126.376 34.3974C125.852 34.6992 125.443 35.1352 125.141 35.6664L126.881 36.6536C127.027 36.3955 127.194 36.2341 127.374 36.1306L126.376 34.3974ZM125.137 35.6744C124.825 36.2356 124.691 36.8689 124.691 37.536H126.691C126.691 37.1364 126.77 36.8524 126.885 36.6456L125.137 35.6744ZM124.691 37.536C124.691 38.2049 124.826 38.8389 125.126 39.4097L126.896 38.4783C126.77 38.2385 126.691 37.9338 126.691 37.536H124.691ZM125.141 39.4376C125.441 39.9652 125.844 40.4005 126.357 40.7112L127.393 39.0008C127.202 38.8849 127.029 38.7121 126.881 38.4504L125.141 39.4376ZM126.368 40.7179C126.878 41.0181 127.436 41.176 128.027 41.176V39.176C127.807 39.176 127.597 39.1206 127.382 38.9941L126.368 40.7179ZM128.027 41.176C128.614 41.176 129.171 41.031 129.683 40.7449L128.707 38.9991C128.494 39.1183 128.272 39.176 128.027 39.176V41.176ZM129.702 40.7339C130.225 40.4261 130.637 39.9944 130.933 39.4616L129.185 38.4904C129.054 38.7256 128.89 38.8912 128.688 39.0101L129.702 40.7339ZM130.939 39.4515C131.246 38.8828 131.379 38.243 131.379 37.568H129.379C129.379 37.981 129.299 38.2799 129.179 38.5005L130.939 39.4515ZM136.871 40.16L136.07 39.5608L134.873 41.16H136.871V40.16ZM140.823 40.16H141.823V39.16H140.823V40.16ZM140.823 42V43H141.823V42H140.823ZM134.327 42H133.327V43H134.327V42ZM134.327 40.192L133.524 39.5959L133.327 39.8614V40.192H134.327ZM138.199 34.976L139.002 35.5721L140.186 33.976H138.199V34.976ZM134.343 34.976H133.343V35.976H134.343V34.976ZM134.343 33.136V32.136H133.343V33.136H134.343ZM140.775 33.136H141.775V32.136H140.775V33.136ZM140.775 34.944L141.575 35.5432L141.775 35.2768V34.944H140.775ZM136.871 41.16H140.823V39.16H136.871V41.16ZM139.823 40.16V42H141.823V40.16H139.823ZM140.823 41H134.327V43H140.823V41ZM135.327 42V40.192H133.327V42H135.327ZM135.13 40.7881L139.002 35.5721L137.396 34.3799L133.524 39.5959L135.13 40.7881ZM138.199 33.976H134.343V35.976H138.199V33.976ZM135.343 34.976V33.136H133.343V34.976H135.343ZM134.343 34.136H140.775V32.136H134.343V34.136ZM139.775 33.136V34.944H141.775V33.136H139.775ZM139.974 34.3448L136.07 39.5608L137.671 40.7592L141.575 35.5432L139.974 34.3448Z" fill="white" mask="url(#path-3-outside-1_246_2483)"/>
</svg>
